#!OML:ASF E:/inclinewalkrobotboard/Project1/Captureday1/Session1/subject1.ASF
:FULLY-SPECIFIED
:DEGREES
151
root 0 0 0 -1.4271113702307583 -1.3995822389611576 -3.9547412321872106
lowerback 20.228899863507603 2.915919386670717 -0.10816919693587201
upperback 2.2743111932480633 3.928735712922345 -0.3957844561620145
thorax -8.867365819283211 1.8976687921966975 -1.0148421881211773
lowerneck -8.327460079790892 -5.96172187248027 -1.2899271654947775
upperneck -0.434258031763358 -8.575524804899823 5.526012118544507
head 1.5597682844460543 -3.935305801350668 1.4033827893616686
rclavicle 3.6730688205995797E-16 4.752829071413938E-16
rhumerus 34.37419101709658 -7.556561681684078 -31.38515325150815
rradius 145.45132686056957
rwrist -20.087640603168147
rhand -19.91326557954175 -30.35813617419404
rfingers 7.125019999999967
rthumb 6.452210240033795 -60.19874633684933
lclavicle -7.852640274399694E-16 7.043730768140076E-16
lhumerus -47.291094722891366 -6.079173515706999 79.56582059652774
lradius 61.92220764558296
lwrist 10.965448407091102
lhand -14.751960705969815 -19.5220736861842
lfingers 7.125019999999859
lthumb 11.328227886795936 10.281706437726932
rfemur -14.259407376839942 7.300932523170466 33.24429718600548
rtibia 39.77268960139805
rfoot -13.819691892997662 -8.757304686416857
rtoes 5.842491427892044
lfemur -19.741891603875565 0.04443693533197157 -19.651243790580374
ltibia 41.66681549916191
lfoot 1.1665364392508195 -7.801908996253434
ltoes 11.732842538230898
152
root 0 0 0 -1.4044262194978951 -1.324258300496031 -3.948166548579623
lowerback 20.28598270123925 2.8662163164062804 -0.21776325100251015
upperback 2.289307710624697 3.8581686467601486 -0.32519274185681235
thorax -8.878358385769431 1.8675063580346043 -0.8702765197417724
lowerneck -8.175440588110202 -5.97425971384692 -1.2351583192197984
upperneck 0.03703247911439611 -8.584149844591625 5.4395399200447745
head 1.7044829423908991 -3.940012409885046 1.3629899471707831
rclavicle 8.197300724814301E-16 5.918270062462772E-17
rhumerus 33.326737752384425 -8.53182961351646 -32.342194205468786
rradius 143.149997472499
rwrist -18.590948788954176
rhand -19.899555189365802 -30.037251282092694
rfingers 7.125019999999968
rthumb 6.4650269537891685 -59.879410526068234
lclavicle -5.682908112035702E-16 4.3925164123903463E-16
lhumerus -47.2511070836293 -6.08375242548128 79.56955143122134
lradius 61.91171354025411
lwrist 10.984819366529953
lhand -14.772792843830743 -19.47336129370803
lfingers 7.125019999999857
lthumb 11.305708672295449 10.341732940478074
rfemur -17.82522362506973 6.529244032563336 32.46498911527152
rtibia 44.48926420016009
rfoot -11.747151515572373 -8.65996653120546
rtoes 6.67690490409619
lfemur -17.37018721231361 -0.10436709520390375 -20.043066592612895
ltibia 42.792409560306055
lfoot 2.53602448791122 -9.201407730184066
ltoes 10.623404451458676
153
root 0 0 0 -1.375158827767211 -1.2544783195757263 -3.9427333742125796
lowerback 20.348240850796337 2.8043594337676274 -0.34698705224144066
upperback 2.320943530856752 3.7715778949568683 -0.23667603178161478
thorax -8.87489820948453 1.8299774012706393 -0.6940841525458696
lowerneck -7.9699316552293284 -5.982901447824915 -1.1621030566582375
upperneck 0.5584562769970223 -8.580892071364689 5.325049314624344
head 1.8591313279105721 -3.9412614043145098 1.3114586721978228
rclavicle 1.25128825230965E-15 -3.337801959966986E-16
rhumerus 32.00941780663297 -9.51967526831687 -33.45067789588468
rradius 140.53830808515153
rwrist -17.070024770572388
rhand -19.844763390783157 -29.72710863319972
rfingers 7.125019999999968
rthumb 6.516611500479151 -59.5712405535795
lclavicle -4.3239801835920733E-16 1.894744463754236E-16
lhumerus -47.20726742149015 -6.109519074918162 79.61316805635836
lradius 61.90750128587614
lwrist 10.993043726904649
lhand -14.772400496483275 -19.449099311778784
lfingers 7.125019999999857
lthumb 11.304137404453956 10.368471753338586
rfemur -20.602639438697185 5.59386970170018 31.753662980397845
rtibia 49.46135586230602
rfoot -9.9824160752468 -8.16265791463006
rtoes 7.7361830875018445
lfemur -15.299882119994857 -0.17045605498810046 -20.1155489350364
ltibia 44.47756559649364
lfoot 3.728532274489986 -10.44493907572939
ltoes 8.840763511434531
154
root 0 0 0 -1.331983800064374 -1.1870867625835728 -3.9408115525606418
lowerback 20.4128266621336 2.735269554026812 -0.48533050640373676
upperback 2.363217082386208 3.676094585036501 -0.13910080874680886
thorax -8.861853824411554 1.7878258398959561 -0.502629009522352
lowerneck -7.724452472221592 -5.987040450285532 -1.0741607193157643
upperneck 1.080160500906329 -8.566790347123302 5.190502489866512
head 2.0093286239113866 -3.9391929000758967 1.2520728350519512
rclavicle 1.6127288149276675E-15 -6.204924403627619E-16
rhumerus 30.663999076216044 -10.424023029197853 -34.45762359108731
rradius 138.07705352537374
rwrist -15.877149607856824
rhand -19.751504922248003 -29.53933512149052
rfingers 7.125019999999968
rthumb 6.604772343347035 -59.383956981215235
lclavicle -3.8784046403442367E-16 -1.0294309035307993E-17
lhumerus -47.15699313709347 -6.161151104715489 79.70586794378941
lradius 61.91150377946332
lwrist 10.985189058156138
lhand -14.745515177659408 -19.464807365618988
lfingers 7.125019999999857
lthumb 11.329124305630994 10.34438185136548
rfemur -22.574286833070353 4.657539514147363 31.12831944141269
rtibia 54.15425462150366
rfoot -8.471939541900465 -7.405428474264509
rtoes 8.984390467176198
lfemur -13.756782417263615 -0.06747988120302617 -19.774410728240866
ltibia 47.042756828157664
lfoot 4.58039130195964 -11.42974161704656
ltoes 6.278395418473821
155
root 0 0 0 -1.2580061773662252 -1.097773581168123 -3.9484157916093574
lowerback 20.473212046347584 2.646956040362239 -0.65204406455152
upperback 2.4026328335748044 3.555889995026675 -0.020411957032280492
thorax -8.84912705812718 1.7334618226911078 -0.2706028992986331
lowerneck -7.402397443272407 -5.9858448095568075 -0.9520028510914489
upperneck 1.6283678091296174 -8.538850788578378 5.015165614412631
head 2.160746706886533 -3.933088437214246 1.1753815530191252
rclavicle 1.6876784083382767E-15 -7.365333809224307E-16
rhumerus 29.585220658339793 -11.278292247271331 -34.929867333885674
rradius 136.22649195395934
rwrist -15.702583364240816
rhand -19.56582769441855 -29.723331811667066
rfingers 7.125019999999967
rthumb 6.781113364757362 -59.56187897160042
lclavicle -5.632121990520886E-16 -9.083049404229555E-17
lhumerus -47.04828628570382 -6.302998149943023 79.94950979679362
lradius 61.94631350640503
lwrist 10.944971767129235
lhand -14.654297762780278 -19.59420789914678
lfingers 7.125019999999861
lthumb 11.417133767520061 10.181059831801718
rfemur -23.74917730861015 3.771383504679142 30.53909542762202
rtibia 58.422486873777174
rfoot -7.11278501454098 -6.413493528210882
rtoes 10.663265711985968
lfemur -12.857340405946708 0.5770825405197608 -18.35607106058968
ltibia 53.12865538903404
lfoot 4.745141337346396 -12.12888571208848
ltoes 0.7290665333634152
156
root 0 0 0 -1.2203484745487503 -1.0562500086763464 -3.9623761455550612
lowerback 20.473761170468684 2.627337729754747 -0.6892704365876496
upperback 2.366285766059972 3.530426544946457 -2.4166272960723933E-4
thorax -8.888027704307138 1.7211215398694986 -0.22660229828902648
lowerneck -7.335927768609002 -5.985048259007133 -0.9086765949323021
upperneck 1.6448368194234657 -8.53456896349891 4.9728098352119225
head 2.1636834516593018 -3.93257753193614 1.1557814243569555
rclavicle 1.3312781787932185E-15 -6.017747206575912E-16
rhumerus 30.248504678233566 -11.219357660857845 -33.96728436985987
rradius 137.326483895252
rwrist -17.258175029671445
rhand -19.427837344442604 -30.263039881218766
rfingers 7.125019999999967
rthumb 6.912776406902845 -60.08973488483693
lclavicle -7.825370590791969E-16 2.894722893985295E-17
lhumerus -46.94690530418323 -6.430941748959801 80.17304768971175
lradius 61.98833332164642
lwrist 10.891447647298167
lhand -14.56330834460134 -19.781435351171723
lfingers 7.125019999999864
lthumb 11.506802769178874 9.96116278726517
rfemur -23.530118734500434 3.706546776654218 30.54388296625093
rtibia 58.312088655222944
rfoot -7.195310408621103 -6.057328971634937
rtoes 11.487519101263192
lfemur -13.738993522270318 1.4094387543566387 -16.82133522920039
ltibia 58.38886785958748
lfoot 3.7605456264966897 -11.787021560852025
ltoes -3.5506148604660197
157
root 0 0 0 -1.2130033367571054 -1.0477666377567492 -3.982370235858446
lowerback 20.42610593457905 2.665251197956956 -0.6276603800242053
upperback 2.25830123096609 3.5841567407766437 -0.05774747826631055
thorax -8.979742221676137 1.7444974441471288 -0.32997175396778167
lowerneck -7.469781982771824 -5.98942320280017 -0.9287576057796316
upperneck 1.2491338220778232 -8.557502373873948 5.044969452878553
head 2.0530586669209567 -3.9398529758209877 1.1840902728047622
rclavicle 5.543717659442459E-16 -3.386165036706214E-16
rhumerus 31.95344743987149 -10.451750602876134 -32.139378256719866
rradius 140.2753808270627
rwrist -19.93502185176775
rhand -19.288202080068274 -31.011472876007588
rfingers 7.125019999999966
rthumb 7.046279329150997 -60.822891929072455
lclavicle -1.1810365128194313E-15 2.6933408209841954E-16
lhumerus -46.83069518216671 -6.575101234088487 80.41587983983008
lradius 62.05264292165691
lwrist 10.828633466672082
lhand -14.460817088988993 -20.038898048020485
lfingers 7.12501999999987
lthumb 11.608184901406931 9.667047758014256
rfemur -22.524360391400688 4.159213974155184 30.940658499663883
rtibia 54.85627706772484
rfoot -8.625159137923145 -6.08722444638136
rtoes 11.929186995927296
lfemur -16.161247615251675 2.392524126121001 -15.272042066871055
ltibia 62.76583155746454
lfoot 1.9933658840237882 -10.705596902606615
ltoes -6.339931183434494
158
root 0 0 0 -1.2391850070520096 -1.0841802501531412 -4.00308492989914
lowerback 20.323001467391354 2.7642450293818044 -0.45441071692397905
upperback 2.119301643695749 3.7219222971476347 -0.19528994281614653
thorax -9.075681149259372 1.8055953524695223 -0.5900971839851584
lowerneck -7.795468086489882 -5.996246765884331 -1.0286356054535166
upperneck 0.4930011826510796 -8.60323954319858 5.243415274784995
head 1.8407546002999924 -3.952644457655734 1.2662841707065426
rclavicle -2.5892811658609354E-16 2.973386320672477E-17
rhumerus 33.80765616290537 -9.047846632998128 -30.34531519483877
rradius 143.79485614234343
rwrist -22.607366959012168
rhand -19.165701618259604 -31.627892699229484
rfingers 7.125019999999964
rthumb 7.163428010377383 -61.426581545767064
lclavicle -1.7037245597637817E-15 5.649253029082298E-16
lhumerus -46.74832460485685 -6.690081395284526 80.59840172929208
lradius 62.12403700424701
lwrist 10.775389615177097
lhand -14.374508518116057 -20.28873506166794
lfingers 7.125019999999874
lthumb 11.694761749328556 9.385484923092001
rfemur -20.131767852767908 5.225035665416474 31.782129416779174
rtibia 47.60909984810977
rfoot -11.613101363520373 -6.5464514813060015
rtoes 11.769044767155194
lfemur -18.916279253749256 3.130971863109892 -14.223407844405882
ltibia 64.9330188610191
lfoot 0.2794735875758825 -9.428219344335027
ltoes -7.110080332812785
